<?xml version="1.0" encoding="utf-8"?>
<!-- Generator: Adobe Illustrator 22.1.0, SVG Export Plug-In . SVG Version: 6.00 Build 0)  -->
<svg version="1.1" id="Capa_1" xmlns="http://www.w3.org/2000/svg" xmlns:xlink="http://www.w3.org/1999/xlink" x="0px" y="0px"
	 viewBox="0 0 512 512" style="enable-background:new 0 0 512 512;" xml:space="preserve">
<style type="text/css">
	.st0{fill:#EFA842;}
</style>
<g id="XMLID_270_">
	<path id="XMLID_276_" class="st0" d="M285.8,263.7l-42.4-28c11-10.9,10.9-10.8,30.4-30l-28.6-60.4l50.9,60.4
		c4.5,5.3,11.3,8.1,18.4,7.3l83-9.5c11.5-1.3,19.7-11.7,18.4-23.2c-1.3-11.5-11.7-19.7-23.2-18.4l-71.8,8.2l-43.7-51.8l42.3,29.6
		c0.1-7.8-2.7-15.6-8.5-21.7l-37.2-39.6c-5.9-6.3-14.1-9.8-22.7-9.8c-8.6,0-16.8,3.6-22.7,9.8L139,181.8
		c-14.2,15.1-11,39.3,6.2,50.4L159,241l-33.2,0c-9.7,0-17.5,7.8-17.5,17.5c0,9.7,7.8,17.5,17.5,17.5h23.7l-15.8,30.1
		c-9.2-2.6-18.8-4-28.8-4C47,302,0,349.1,0,406.9s47,104.9,104.9,104.9c45.7,0,84.6-29.4,99-70.2c-5.8-0.7-11.1-2.5-16.2-5.3
		c-21.8-12.1-29.6-39.7-17.5-61.4c9.7-17.4,4.3-7.7,31.8-57.2l-8.1-19.5h16.7h0.5L163.8,244c52.9,33.9,35.8,22.8,74.9,48.7l-51,91.9
		c-6.7,12.1-2.4,27.4,9.7,34.1c12.1,6.7,27.4,2.4,34.1-9.7l62.3-112.2C300.2,285.3,296.7,270.9,285.8,263.7z M155.1,314.9l11.6-22
		l20.3,48.9C178.3,330.8,167.4,321.6,155.1,314.9z"/>
	<path id="XMLID_275_" class="st0" d="M299.8,56.3c-1.7,13.2,2.3,27,12.2,37.5c17.5,18.6,46.7,19.4,65.2,2c4-3.7,7.1-8,9.5-12.6
		c-1.2-0.3-2.3-0.6-3.5-1c-17.8-6.5-36.5-11.9-53-16.7C319,62.3,308.9,59.3,299.8,56.3z"/>
	<path id="XMLID_274_" class="st0" d="M391.2,60.6c0.7,0.2,1.4,0.4,2.1,0.4c1,0,2.1-0.3,3-0.8c1.5-0.9,2.6-2.4,2.9-4.1
		c1.8-9.9,2.8-21.1-2.4-29.4C385.5,8.4,370.1,0.3,342.2,0.3c-5.3,0-11,0.3-17.2,0.9c-3.9,0.4-7.7,0.5-11.4,0.5
		c-9.1,0-17.5-0.8-24.2-0.8c-8.3,0-14.2,1.2-16.1,6.4C264.9,30.4,330,38.1,391.2,60.6z"/>
	<path id="XMLID_271_" class="st0" d="M407.1,302c-7.5,0-14.9,0.8-21.9,2.3l-25.1-75.6l-23.4,2.7l6.8,20.6l-37.4,3.1
		c4.6,5.4,7.9,11.8,9.7,18.8c0.3,1.2,0.5,2.3,0.7,3.5l13.8-1.1l-13.6,14.9c-0.8,5.3-2.5,10.5-5.2,15.4L276.7,369l77.6-84.9l9.1,27.5
		c-36,16.6-61.1,53.1-61.1,95.3c0,57.8,47,104.9,104.9,104.9c57.8,0,104.9-47,104.9-104.9C512,349.1,465,302,407.1,302z
		 M407.1,483.8c-42.4,0-76.9-34.5-76.9-76.9c0-29.9,17.1-55.8,42-68.5l24,72.2c1.6,4.8,6.1,7.9,10.9,7.9c1.2,0,2.4-0.2,3.6-0.6
		c6-2,9.3-8.5,7.3-14.6l-24-72.2c4.2-0.7,8.6-1.1,13-1.1c42.4,0,76.9,34.5,76.9,76.9C484.1,449.3,449.6,483.8,407.1,483.8z"/>
</g>
</svg>
