<?xml version="1.0" encoding="utf-8"?>
<!-- Generator: Adobe Illustrator 22.1.0, SVG Export Plug-In . SVG Version: 6.00 Build 0)  -->
<svg version="1.1" id="Capa_1" xmlns="http://www.w3.org/2000/svg" xmlns:xlink="http://www.w3.org/1999/xlink" x="0px" y="0px"
	 viewBox="0 0 512 512" style="enable-background:new 0 0 512 512;" xml:space="preserve">
<style type="text/css">
	.st0{fill:#EFA842;}
</style>
<g>
	<g id="_x36_5_30_">
		<g>
			<circle class="st0" cx="256" cy="138.5" r="53.4"/>
			<path class="st0" d="M484,29.5c-4.3,0-8,2-10.5,5v-9c0-7.5-6-13.5-13.5-13.5c-5.5,0-10.2,3.2-12.3,7.9v-6.4
				c0-7.5-6.1-13.5-13.5-13.5c-7.5,0-13.5,6.1-13.5,13.5v42.2h-49.9c-3.2-7.3-10.8-12-19.1-11.2c-7,0.7-12.6,5.2-15.2,11.2H175.6
				c-2.6-6-8.2-10.4-15.2-11.2c-8.4-0.9-15.9,3.9-19.1,11.2H91.4V13.5C91.4,6.1,85.4,0,77.9,0c-7.5,0-13.5,6.1-13.5,13.5v6.4
				c-2.1-4.7-6.8-7.9-12.3-7.9c-7.5,0-13.5,6.1-13.5,13.5v9c-2.5-3.1-6.3-5-10.5-5c-7.5,0-13.5,6.1-13.5,13.5v52.4
				c0,7.5,6.1,13.5,13.5,13.5c4.3,0,8-2,10.5-5v9c0,7.5,6.1,13.5,13.5,13.5c5.5,0,10.2-3.2,12.3-7.9v6.4c0,7.5,6.1,13.5,13.5,13.5
				c7.5,0,13.5-6.1,13.5-13.5V82.8H138c-1.8,33.8-1.5,93.5,21.2,118.3c17.1,18.8,35.7,29.5,48.1,35.2V332
				c-27.2,7.5-48.2,22.5-66.2,46.5c-24.3,32.4-25,96.1-24.9,108.5c0.1,13.8,11.3,24.9,25.1,24.9c0.1,0,0.1,0,0.2,0
				c13.9-0.1,25.1-11.5,24.9-25.3c-0.2-23.2,4.4-64,14.9-78c14.9-19.9,32.7-32.2,74.6-32.4c42,0.1,59.7,12.5,74.6,32.4
				c10.5,13.9,15.1,54.8,14.9,78c-0.1,13.9,11.1,25.2,24.9,25.3c0.1,0,0.1,0,0.2,0c13.8,0,25-11.1,25.1-24.9
				c0.1-12.4-0.6-76.1-24.9-108.5c-18-24-39-39-66.2-46.5v-95.7c12.4-5.7,31-16.5,48.1-35.2c22.7-24.8,23-84.5,21.2-118.3h46.6V125
				c0,7.5,6.1,13.5,13.5,13.5c7.5,0,13.5-6.1,13.5-13.5v-6.4c2.1,4.7,6.8,7.9,12.3,7.9c7.5,0,13.5-6.1,13.5-13.5v-9
				c2.5,3.1,6.3,5,10.5,5c7.5,0,13.5-6.1,13.5-13.5V43C497.5,35.6,491.4,29.5,484,29.5z M324.9,175.6c-11.8,13-31.5,24.6-33.4,25.2
				c-2,0.6-13.5-2.9-35.5-2.9c-21.9,0-32,3.2-35.5,2.9c-3.5-0.3-21.6-12.2-33.4-25.2c-10.3-11.3-13.5-53.8-11.3-92.9h160.4
				C338.4,121.9,335.2,164.3,324.9,175.6z"/>
		</g>
	</g>
</g>
</svg>
