<?xml version="1.0" encoding="utf-8"?>
<!-- Generator: Adobe Illustrator 22.1.0, SVG Export Plug-In . SVG Version: 6.00 Build 0)  -->
<svg version="1.1" id="Capa_1" xmlns="http://www.w3.org/2000/svg" xmlns:xlink="http://www.w3.org/1999/xlink" x="0px" y="0px"
	 viewBox="0 0 512 512" style="enable-background:new 0 0 512 512;" xml:space="preserve">
<style type="text/css">
	.st0{fill:#EFA842;}
</style>
<g>
	<g id="_x32_7_48_">
		<g>
			<path class="st0" d="M257.2,162.4c0.1,0,0.2,0,0.3,0c0.1,0,0.2,0,0.3,0c44.9,0,81.2-36.4,81.2-81.2C339,36.4,302.6,0,257.7,0
				c-0.1,0-0.2,0-0.3,0c-0.1,0-0.2,0-0.3,0C212.3,0,176,36.4,176,81.2C176,126.1,212.3,162.4,257.2,162.4z"/>
			<path class="st0" d="M461.2,328.6L369.6,262l-29-70.7c-5.5-13.5-18.6-21.5-32.4-21.2l0,0H256h-52.3l0,0
				c-13.7-0.3-26.9,7.7-32.4,21.2l-29,70.7l-91.6,66.6c-15.3,11.1-18.6,32.5-7.5,47.7c6.7,9.2,17.1,14.1,27.7,14.1
				c7,0,14-2.1,20.1-6.5l99-72l-2.5,26.1l-93.6,94.9c-13,13.5-16.7,33.5-9.3,50.7c7.3,17.2,24.3,28.4,43,28.4h44.8
				c-11.5-10.4-18.9-26-18.9-43.4c0-31.4,23.8-56.9,53.2-56.9c0,0,34.3,0,51,0c16.7,0,29.9,13.7,29.9,13.7h-80.9
				c-22.3,0-40.4,19.4-40.4,43.2c0,23.8,18.1,43.2,40.4,43.2H285c0.9-0.1,1.8-0.1,2.6-0.2h94.7c18.7,0,35.7-11.2,43-28.4
				c7.3-17.2,3.7-37.2-9.3-50.7l-91.6-95h0l-2.5-25.6l99,72c6.1,4.4,13.1,6.5,20.1,6.5c10.6,0,21-4.9,27.7-14.1
				C479.8,361,476.5,339.7,461.2,328.6z"/>
		</g>
	</g>
</g>
</svg>
