<?xml version="1.0" encoding="utf-8"?>
<!-- Generator: Adobe Illustrator 22.1.0, SVG Export Plug-In . SVG Version: 6.00 Build 0)  -->
<svg version="1.1" id="Capa_1" xmlns="http://www.w3.org/2000/svg" xmlns:xlink="http://www.w3.org/1999/xlink" x="0px" y="0px"
	 viewBox="0 0 512 512" style="enable-background:new 0 0 512 512;" xml:space="preserve">
<style type="text/css">
	.st0{fill:#EFA842;}
</style>
<g>
	<g>
		<circle class="st0" cx="433" cy="347.5" r="39.9"/>
		<path class="st0" d="M511.5,393.8c-2.1-7.8-10-12.3-17.8-10.2l-96.5,25.9l-15.1-31.1c3.2-4.6,5-10.2,5-16.2c0-16-13-29-29-29
			H173.9c-7.3,0-13.9,2.8-19,7.2H21.7C9.7,340.3,0,350,0,362c0,12,9.7,21.7,21.7,21.7h133.2c5.1,4.5,11.7,7.2,19,7.2H356l20.3,41.8
			c2.5,5.1,7.6,8.2,13,8.2l3.7-0.5l108.1-29C509,409.4,513.6,401.5,511.5,393.8z"/>
		<path class="st0" d="M178.5,325.3c1.9,0.3,3.9,0.5,5.7,0.5c17.5,0,32.9-12.7,35.7-30.5l8.3-51.8l86.3,75.1
			c2.7,2.4,6.1,3.6,9.5,3.6c4,0,8.1-1.7,10.9-5c5.3-6,4.6-15.2-1.4-20.4l-99.9-87l0.9-5.5c3.2-19.8-10.3-38.3-30.1-41.5
			c-19.9-3.2-38.3,10.3-41.5,30.1l-14.5,91C145.3,303.6,158.8,322.2,178.5,325.3z"/>
		<circle class="st0" cx="219.5" cy="114.4" r="43.4"/>
	</g>
</g>
</svg>
